<?xml version="1.0" encoding="iso-8859-1"?>
<!-- Uploaded to: SVG Repo, www.svgrepo.com, Generator: SVG Repo Mixer Tools -->
<svg fill="#000000" height="800px" width="800px" version="1.1" id="Layer_1" xmlns="http://www.w3.org/2000/svg" xmlns:xlink="http://www.w3.org/1999/xlink" 
	 viewBox="0 0 512 512" xml:space="preserve">
<g>
	<g>
		<path d="M443.924,333.592l-11.988,11.989l-23.729-23.73c4.896-15.316,7.548-31.624,7.548-48.543v-16.54
			c24.856-17.123,41.185-45.774,41.185-78.173c0-38.568-23.137-71.83-56.257-86.646C374.415,35.883,318.314,0,255.999,0
			c-62.317,0-118.417,35.883-144.682,91.951c-33.12,14.816-56.257,48.078-56.257,86.646c0,32.398,16.328,61.05,41.184,78.172v16.541
			c0,16.918,2.652,33.227,7.548,48.543l-23.73,23.73l-11.989-11.989L4.982,396.685L120.297,512l63.092-63.092L171.4,436.919
			l18.283-18.283c19.556,8.96,41.221,14.078,64.026,14.401c0.761,0.019,1.524,0.029,2.29,0.029c0.766,0,1.529-0.01,2.29-0.029
			c22.805-0.322,44.47-5.441,64.026-14.4l18.283,18.283l-11.988,11.988L391.704,512l115.314-115.315L443.924,333.592z
			 M411.604,137.396c9.315,11.18,14.93,25.545,14.93,41.201c0.001,26.639-16.242,49.555-39.343,59.365
			c-0.048,0.02-0.096,0.039-0.144,0.06c-0.863,0.364-1.738,0.707-2.62,1.035c-0.1,0.037-0.2,0.077-0.301,0.114
			c-0.827,0.302-1.664,0.581-2.506,0.849c-0.307,0.097-0.615,0.192-0.923,0.285c-0.62,0.188-1.245,0.364-1.873,0.533
			c-0.466,0.126-0.934,0.245-1.404,0.36c-0.568,0.139-1.138,0.272-1.712,0.396c-0.401,0.087-0.804,0.171-1.207,0.25
			c-0.769,0.151-1.54,0.292-2.319,0.416c-0.337,0.054-0.678,0.097-1.016,0.145c-0.629,0.089-1.262,0.171-1.897,0.242
			c-0.301,0.033-0.602,0.071-0.903,0.1c-0.885,0.086-1.775,0.154-2.669,0.204c-0.238,0.013-0.476,0.023-0.714,0.034
			c-0.965,0.044-1.933,0.074-2.909,0.074c-0.001,0-0.001,0-0.001,0c-15.394,0-29.842-5.595-41.146-14.985L411.604,137.396z
			 M362.075,114.135c1.041,0,2.074,0.029,3.102,0.079c0.301,0.014,0.601,0.04,0.901,0.059c0.741,0.046,1.48,0.098,2.214,0.169
			c0.323,0.03,0.645,0.069,0.967,0.105c0.727,0.081,1.45,0.171,2.17,0.277c0.291,0.043,0.582,0.087,0.873,0.134
			c0.779,0.125,1.554,0.264,2.323,0.416c0.218,0.044,0.437,0.084,0.655,0.13c0.918,0.192,1.83,0.401,2.734,0.632
			c0.064,0.016,0.128,0.03,0.192,0.047c2.985,0.772,5.883,1.757,8.685,2.93l-84.299,84.299c-0.046-0.109-0.097-0.216-0.143-0.326
			c-1.399-3.385-2.516-6.922-3.321-10.584l-2.623-11.94h-0.001h-81.015l-2.623,11.94c-1.408,6.408-3.774,12.432-6.928,17.933
			c-0.898,1.572-1.863,3.101-2.888,4.584c-1.537,2.225-3.211,4.346-5.006,6.353c-11.966,13.382-29.345,21.687-48.117,21.687h-0.001
			c-0.976,0-1.944-0.03-2.909-0.074c-0.238-0.011-0.477-0.02-0.716-0.034c-0.894-0.05-1.783-0.118-2.667-0.204
			c-0.303-0.029-0.606-0.067-0.909-0.101c-0.631-0.071-1.26-0.152-1.886-0.24c-0.343-0.049-0.687-0.093-1.029-0.147
			c-0.774-0.123-1.542-0.263-2.308-0.414c-0.409-0.08-0.817-0.166-1.224-0.254c-0.558-0.121-1.113-0.25-1.666-0.385
			c-0.492-0.121-0.984-0.246-1.474-0.378c-0.131-0.035-0.258-0.075-0.389-0.11l126.582-126.582h102.738
			C362.071,114.135,362.073,114.135,362.075,114.135z M255.999,30.404c42.114,0,80.726,20.239,104.712,53.327H151.287
			C175.273,50.643,213.885,30.404,255.999,30.404z M85.465,178.597c0-29.975,20.565-55.236,48.328-62.416
			c0.061-0.016,0.123-0.029,0.185-0.045c0.906-0.232,1.821-0.442,2.742-0.634c0.215-0.045,0.431-0.085,0.647-0.128
			c0.772-0.153,1.55-0.292,2.331-0.418c0.289-0.046,0.578-0.09,0.867-0.133c0.722-0.105,1.447-0.196,2.176-0.278
			c0.321-0.035,0.642-0.074,0.963-0.104c0.736-0.071,1.476-0.124,2.219-0.169c0.299-0.018,0.598-0.044,0.897-0.058
			c1.03-0.049,2.064-0.079,3.106-0.079c0.001,0,0.002,0,0.003,0h66.409L105.363,225.109
			C93.114,213.368,85.465,196.864,85.465,178.597z M120.296,469.001L47.98,396.685l20.094-20.094l36.158,36.158l36.158,36.158
			L120.296,469.001z M149.9,415.419l-48.339-48.338l15.275-15.275c11.339,20.063,26.929,37.501,45.644,51.033L149.9,415.419z
			 M197.54,344.202c0-5.205,0.693-10.25,1.976-15.057l26.079,15.057l-26.079,15.057C198.233,354.452,197.54,349.408,197.54,344.202z
			 M240.797,400.644c-9.99-2.694-18.934-7.965-26.056-15.067l26.056-15.043V400.644z M240.797,317.871l-26.056-15.043
			c7.123-7.102,16.066-12.375,26.056-15.067V317.871z M271.202,400.643v-30.11l26.055,15.043
			C290.134,392.678,281.191,397.95,271.202,400.643z M312.483,359.26l-26.079-15.057l26.079-15.057
			c1.283,4.807,1.976,9.851,1.976,15.057C314.459,349.409,313.766,354.453,312.483,359.26z M271.202,317.871V287.76
			c9.99,2.694,18.934,7.965,26.055,15.067L271.202,317.871z M340.742,370.954c2.673-8.446,4.118-17.434,4.118-26.753
			c0-49-39.864-88.864-88.864-88.864c-49,0-88.864,39.864-88.864,88.864c0,9.319,1.445,18.305,4.118,26.753
			c-27.31-23.734-44.605-58.707-44.605-97.645v-2.739c4.676,1.184,9.486,2.016,14.404,2.475c0.052,0.005,0.103,0.009,0.154,0.014
			c0.841,0.077,1.686,0.143,2.534,0.198c0.186,0.012,0.372,0.024,0.558,0.035c0.734,0.044,1.471,0.077,2.209,0.103
			c0.219,0.008,0.438,0.018,0.658,0.025c0.918,0.026,1.839,0.044,2.764,0.044c12.233,0,24.308-2.389,35.531-6.919
			c2.494-1.006,4.945-2.119,7.347-3.334c2.402-1.215,4.753-2.534,7.048-3.953c3.442-2.128,6.754-4.482,9.911-7.053
			c13.344-10.865,23.494-25.215,29.329-41.239h33.815c5.836,16.025,15.984,30.374,29.329,41.239
			c16.837,13.708,38.088,21.259,59.836,21.259c0.924,0,1.846-0.017,2.764-0.044c0.218-0.006,0.436-0.017,0.655-0.025
			c0.74-0.026,1.478-0.061,2.213-0.103c0.185-0.011,0.37-0.023,0.554-0.036c0.849-0.055,1.697-0.121,2.54-0.199
			c0.05-0.005,0.098-0.008,0.148-0.013c4.918-0.458,9.729-1.291,14.404-2.475v2.739
			C385.348,312.248,368.053,347.221,340.742,370.954z M349.518,402.839c18.715-13.533,34.305-30.97,45.644-51.033l15.274,15.274
			l-24.169,24.169l-24.169,24.169L349.518,402.839z M391.702,469.002l-20.094-20.094l72.316-72.316l20.094,20.094L391.702,469.002z"
			/>
	</g>
</g>
</svg>